# xmcd
#
# Track frame offsets: 
#        150
#        14709
#        15704
#        22652
#        27345
#        40686
#        84993
#        86049
#        86829
#        88165
#        93053
#        150024
#        167076
#        168372
#        170159
#        176865
#        178691
#        179364
#        180353
#        182921
#        184468
#        201465
#        207615
#        232021
#        240834
#        256652
#        259547
#        283252
#        300921
#        312148
#
# Disc length: 4438 seconds
#
# Revision: 0
# Processed by: cddbd v1.5.2PL0 Copyright (c) Steve Scherf et al.
# Submitted via: ExactAudioCopy v0.95b3
#
DISCID=8411541e
DTITLE=The Beatles  - AB  Road - Complete Purple Chick Set v1.1 Jan.22
DTITLE=Various Artist - D4  FLAC
DYEAR=1900
DGENRE=
TTITLE0=I've Got A Feeling 22.74P
TTITLE1=I've Got A Feeling 22.74P
TTITLE2=Dig A Pony 22.68P
TTITLE3=Dig A Pony 22.68P
TTITLE4=Dig A Pony 22.64P
TTITLE5=Don't Let Me Down 22.60P
TTITLE6=Roll announcement
TTITLE7=Dialogue
TTITLE8=Dialogue
TTITLE9=Don't Let Me Down 22.76a
TTITLE10=Don't Let Me Down 22.76b
TTITLE11=Don't Let Me Down 22.77
TTITLE12=Don't Let Me Down 22.78
TTITLE13=Don't Let Me Down 22.79
TTITLE14=Don't Let Me Down 22.80
TTITLE15=Don't Let Me Down 22.81
TTITLE16=Don't Let Me Down 22.82
TTITLE17=Don't Let Me Down 22.83
TTITLE18=Don't Let Me Down 22.84
TTITLE19=Dig A Pony 22.85
TTITLE20=I've Got A Feeling 22.86
TTITLE21=I've Got A Feeling 22.87
TTITLE22=I've Got A Feeling 22.88
TTITLE23=I've Got A Feeling 22.89
TTITLE24=I've Got A Feeling 22.90
TTITLE25=I've Got A Feeling 22.91
TTITLE26=I've Got A Feeling 22.92
TTITLE27=I've Got A Feeling 22.93
TTITLE28=Improvisation 22.94
TTITLE29=Dialogue
EXTD=
EXTT0=
EXTT1=
EXTT2=
EXTT3=
EXTT4=
EXTT5=
EXTT6=
EXTT7=
EXTT8=
EXTT9=
EXTT10=
EXTT11=
EXTT12=
EXTT13=
EXTT14=
EXTT15=
EXTT16=
EXTT17=
EXTT18=
EXTT19=
EXTT20=
EXTT21=
EXTT22=
EXTT23=
EXTT24=
EXTT25=
EXTT26=
EXTT27=
EXTT28=
EXTT29=
PLAYORDER=
